<svg version="1.1" id="Layer_1" x="0px" y="0px" viewBox="0 0 133.20463 40.000001" xml:space="preserve" width="133.20464" height="40" xmlns="http://www.w3.org/2000/svg" xmlns:svg="http://www.w3.org/2000/svg"><defs id="defs209" /><style type="text/css" id="style152"> .st0{fill:#D0D0D0;} .st1{fill:#FFFFFF;} .st2{fill:#BB1E2D;}</style><path class="st0" d="M 123.78378,0 H 9.3822394 C 9.034749,0 8.6486486,0 8.3011583,0 7.992278,0 7.6833977,0 7.4131274,0 6.7567568,0 6.1003861,0.03861004 5.4440154,0.19305019 4.7876448,0.30888031 4.1698842,0.5019305 3.5521236,0.81081081 2.972973,1.1196911 2.4324324,1.5057915 1.969112,1.969112 1.5057915,2.4324324 1.1196911,2.972973 0.81081081,3.5521236 0.5019305,4.1698842 0.30888031,4.7876448 0.19305019,5.4440154 0.07722008,6.1003861 0.03861004,6.7567568 0,7.4131274 0,7.7220077 0,8.030888 0,8.3397683 v 1.0810811 21.1583016 1.081081 c 0,0.30888 0,0.61776 0,0.926641 0,0.65637 0.03861004,1.312741 0.19305019,1.969112 0.11583012,0.65637 0.30888031,1.274131 0.61776062,1.891891 0.30888029,0.579151 0.69498069,1.119692 1.15830119,1.583012 0.4633204,0.46332 1.003861,0.849421 1.5830116,1.158301 0.6177606,0.30888 1.1969111,0.501931 1.8918918,0.617761 0.6563707,0.11583 1.3127414,0.15444 1.969112,0.19305 0.3088803,0 0.6177606,0 0.8880309,0 0.3474903,0 0.7335907,0 1.0810811,0 H 123.78378 c 0.34749,0 0.73359,0 1.08108,0 0.30889,0 0.61777,0 0.92665,0 0.65637,0 1.31274,-0.03861 1.96911,-0.19305 0.65637,-0.11583 1.27413,-0.308881 1.89189,-0.617761 0.57915,-0.30888 1.11969,-0.694981 1.58301,-1.158301 0.46332,-0.46332 0.84942,-1.003861 1.1583,-1.583012 0.30888,-0.57915 0.50193,-1.235521 0.61776,-1.891891 0.11583,-0.656371 0.15444,-1.312742 0.19305,-1.969112 0,-0.308881 0,-0.617761 0,-0.926641 0,-0.347491 0,-0.733591 0,-1.081081 V 9.4208494 c 0,-0.3474903 0,-0.7335907 0,-1.0810811 0,-0.3088803 0,-0.6177606 0,-0.9266409 -0.0386,-0.6563706 -0.0772,-1.3127413 -0.19305,-1.969112 C 132.89575,4.7876448 132.7027,4.1698842 132.39382,3.5521236 132.08494,2.972973 131.69884,2.4324324 131.23552,1.969112 130.7722,1.5057915 130.23166,1.1196911 129.65251,0.81081081 129.03475,0.5019305 128.41699,0.30888031 127.76062,0.19305019 127.10425,0.07722008 126.44788,0.03861004 125.79151,0 c -0.30888,0 -0.61776,0 -0.92665,0 -0.3861,0 -0.73359,0 -1.08108,0" id="path154" style="stroke-width:0.3861" /><path d="m 8.3011583,39.073359 c -0.3088803,0 -0.5791506,0 -0.8880309,0 -0.5405405,0 -1.1969112,-0.03861 -1.8532818,-0.15444 C 4.9420849,38.803089 4.4401544,38.648649 3.9382239,38.378378 3.4362934,38.108108 2.972973,37.799228 2.5482625,37.374517 2.1235521,36.988417 1.8146718,36.525097 1.5444015,35.984556 1.2741313,35.482625 1.1196911,34.942085 1.003861,34.362934 0.88803089,33.706564 0.84942085,33.011583 0.84942085,32.509653 c 0,-0.193051 0,-0.888031 0,-0.888031 V 8.3397683 c 0,0 0,-0.6949807 0,-0.8880308 0,-0.5019306 0.03861,-1.1969112 0.15444015,-1.8532819 C 1.1196911,4.980695 1.2741313,4.4401544 1.5444015,3.976834 1.8146718,3.4749035 2.1235521,3.011583 2.5482625,2.5868726 2.972973,2.1621622 3.4362934,1.8532819 3.9382239,1.5830116 4.4401544,1.3127413 4.980695,1.1583012 5.5598456,1.042471 6.2162162,0.92664093 6.9111969,0.88803089 7.4131274,0.88803089 h 0.8880309 116.5250917 0.88804 c 0.50193,0 1.19691,0.03861 1.81467,0.15444011 0.57915,0.1158302 1.11969,0.2702703 1.66023,0.5405406 0.50193,0.2702703 0.96525,0.5791506 1.38996,1.003861 0.3861,0.3861004 0.73359,0.8494208 1.00386,1.3899614 0.27027,0.5019305 0.42471,1.042471 0.54054,1.6216216 0.11583,0.6177606 0.15444,1.2741313 0.15444,1.8532819 0,0.2702702 0,0.5791505 0,0.8880308 0,0.3861004 0,0.7335908 0,1.0810811 V 30.579151 c 0,0.34749 0,0.69498 0,1.042471 0,0.30888 0,0.61776 0,0.926641 -0.0386,0.57915 -0.0386,1.235521 -0.15444,1.814671 -0.11583,0.617761 -0.27027,1.158302 -0.54054,1.660232 -0.27027,0.501931 -0.61776,0.965251 -1.00386,1.351351 -0.42471,0.424711 -0.88803,0.733591 -1.38996,1.003861 -0.50193,0.270271 -1.04247,0.424711 -1.66023,0.540541 -0.61776,0.11583 -1.27413,0.15444 -1.85328,0.15444 -0.27027,0 -0.57915,0 -0.88804,0 h -1.08108 z" id="path156" style="stroke-width:0.3861" /><path class="st1" d="m 45.328185,25.444015 h 3.436294 l -1.235521,-3.320463 c -0.154441,-0.46332 -0.347491,-0.965251 -0.501931,-1.505791 -0.15444,0.50193 -0.30888,1.003861 -0.50193,1.505791 z m 4.054054,1.544402 h -4.633204 l -1.119691,3.088803 h -2.046332 l 4.517374,-11.544401 h 1.930502 l 4.633205,11.544401 h -2.123552 z" id="path158" style="stroke-width:0.3861" /><path class="st1" d="m 58.764479,27.992278 c 0.3861,-0.540541 0.61776,-1.312741 0.61776,-2.355212 0,-0.965251 -0.15444,-1.660232 -0.50193,-2.084942 -0.34749,-0.424711 -0.772201,-0.656371 -1.312741,-0.656371 -0.386101,0 -0.733591,0.07722 -1.042471,0.27027 -0.308881,0.19305 -0.617761,0.424711 -0.926641,0.733591 v 4.594594 c 0.19305,0.07722 0.42471,0.154441 0.69498,0.231661 0.270271,0.03861 0.501931,0.07722 0.772201,0.07722 0.694981,0 1.274131,-0.27027 1.698842,-0.810811 m -5.173745,-4.401544 c 0,-0.656371 -0.03861,-1.351352 -0.07722,-2.084942 h 1.853281 c 0.07722,0.34749 0.11583,0.73359 0.154441,1.081081 0.7722,-0.849421 1.660231,-1.235522 2.625482,-1.235522 0.579151,0 1.119691,0.154441 1.583012,0.424711 0.50193,0.27027 0.888031,0.733591 1.196911,1.389961 0.30888,0.617761 0.46332,1.428572 0.46332,2.393823 0,1.003861 -0.15444,1.853281 -0.50193,2.586872 -0.34749,0.694981 -0.810811,1.235521 -1.428572,1.621622 -0.61776,0.34749 -1.312741,0.54054 -2.123552,0.54054 -0.57915,0 -1.158301,-0.11583 -1.737451,-0.30888 v 3.552124 l -1.969112,0.15444 v -10.11583 z" id="path160" style="stroke-width:0.3861" /><path class="st1" d="m 67.799228,27.992278 c 0.3861,-0.540541 0.61776,-1.312741 0.61776,-2.355212 0,-0.965251 -0.15444,-1.660232 -0.50193,-2.084942 -0.34749,-0.424711 -0.772201,-0.656371 -1.312741,-0.656371 -0.386101,0 -0.733591,0.07722 -1.042471,0.27027 -0.308881,0.19305 -0.617761,0.424711 -0.926641,0.733591 v 4.594594 c 0.19305,0.07722 0.42471,0.154441 0.69498,0.231661 0.270271,0.03861 0.501931,0.07722 0.772201,0.07722 0.694981,0 1.312741,-0.27027 1.698842,-0.810811 m -5.173745,-4.401544 c 0,-0.656371 -0.03861,-1.351352 -0.07722,-2.084942 h 1.853281 c 0.07722,0.34749 0.115831,0.73359 0.154441,1.081081 0.7722,-0.849421 1.660231,-1.235522 2.625482,-1.235522 0.579151,0 1.119691,0.154441 1.583012,0.424711 0.50193,0.27027 0.888031,0.733591 1.196911,1.389961 0.30888,0.656371 0.46332,1.428572 0.46332,2.393823 0,1.003861 -0.15444,1.853281 -0.50193,2.586872 -0.34749,0.694981 -0.810811,1.235521 -1.428572,1.621622 -0.61776,0.34749 -1.312741,0.54054 -2.123552,0.54054 -0.57915,0 -1.158301,-0.11583 -1.737451,-0.30888 v 3.552124 l -1.969112,0.15444 v -10.11583 z" id="path162" style="stroke-width:0.3861" /><path class="st1" d="m 74.131274,29.53668 c -0.849421,-0.463321 -1.505791,-1.158302 -1.969112,-2.007722 -0.46332,-0.888031 -0.694981,-1.930502 -0.694981,-3.088804 0,-1.312741 0.270271,-2.393822 0.772201,-3.320463 0.540541,-0.888031 1.235521,-1.583011 2.162162,-2.046332 0.888031,-0.46332 1.930502,-0.694981 3.050193,-0.694981 0.656371,0 1.312742,0.07722 1.891892,0.231661 0.617761,0.15444 1.158302,0.34749 1.698842,0.61776 l -0.50193,1.505792 C 79.498069,20.23166 78.494208,20 77.528958,20 c -0.810811,0 -1.505792,0.15444 -2.123553,0.501931 -0.61776,0.34749 -1.081081,0.84942 -1.389961,1.505791 -0.34749,0.656371 -0.50193,1.467181 -0.50193,2.393822 0,0.810811 0.11583,1.544402 0.3861,2.200773 0.27027,0.65637 0.656371,1.158301 1.235521,1.505791 0.540541,0.3861 1.274131,0.540541 2.084942,0.540541 0.386101,0 0.772201,-0.03861 1.158301,-0.07722 0.386101,-0.07722 0.733591,-0.154441 1.081081,-0.270271 v -2.316602 h -2.664092 v -1.544402 h 4.594594 v 4.864865 C 80.733591,29.6139 80.03861,29.84556 79.305019,30 c -0.73359,0.15444 -1.428571,0.23166 -2.162162,0.23166 -1.158301,0 -2.162162,-0.23166 -3.011583,-0.69498" id="path164" style="stroke-width:0.3861" /><path class="st1" d="m 87.297297,28.494208 c 0.424711,-0.19305 0.733591,-0.42471 1.003861,-0.73359 v -1.583012 c -0.54054,-0.03861 -0.965251,-0.07722 -1.312741,-0.07722 -0.810811,0 -1.389961,0.11583 -1.698842,0.3861 -0.30888,0.270271 -0.46332,0.617761 -0.46332,1.081082 0,0.42471 0.11583,0.73359 0.34749,0.92664 0.23166,0.193051 0.540541,0.308881 0.926641,0.308881 0.3861,0 0.772201,-0.11583 1.196911,-0.308881 m 1.158301,1.583012 c -0.07722,-0.34749 -0.11583,-0.733591 -0.11583,-1.158301 -0.30888,0.34749 -0.69498,0.656371 -1.196911,0.926641 -0.50193,0.27027 -1.042471,0.3861 -1.660232,0.3861 -0.50193,0 -0.92664,-0.11583 -1.351351,-0.30888 -0.42471,-0.19305 -0.733591,-0.501931 -0.965251,-0.888031 -0.23166,-0.3861 -0.34749,-0.849421 -0.34749,-1.428571 0,-0.849421 0.30888,-1.505792 0.888031,-2.007722 0.61776,-0.501931 1.583011,-0.733591 3.011583,-0.733591 0.54054,0 1.042471,0.03861 1.544401,0.11583 v -0.15444 c 0,-0.772201 -0.15444,-1.312741 -0.50193,-1.621622 -0.308881,-0.30888 -0.772201,-0.46332 -1.389962,-0.46332 -0.42471,0 -0.84942,0.07722 -1.351351,0.19305 -0.46332,0.11583 -0.888031,0.27027 -1.274131,0.42471 l -0.308881,-1.428571 c 0.347491,-0.15444 0.810811,-0.30888 1.389962,-0.42471 0.57915,-0.115831 1.196911,-0.193051 1.814672,-0.193051 0.73359,0 1.389961,0.11583 1.891892,0.347491 0.50193,0.23166 0.92664,0.61776 1.235521,1.158301 0.30888,0.54054 0.42471,1.274131 0.42471,2.200772 v 3.436293 c 0,0.347491 0.03861,0.888031 0.07722,1.621622 z" id="path166" style="stroke-width:0.3861" /><path class="st1" d="m 91.969112,28.030888 v -10.15444 l 1.969112,-0.15444 v 9.96139 c 0,0.34749 0.07722,0.61776 0.19305,0.7722 0.11583,0.154441 0.30888,0.231661 0.579151,0.231661 0.11583,0 0.30888,-0.03861 0.50193,-0.07722 l 0.23166,1.428571 c -0.19305,0.07722 -0.42471,0.11583 -0.69498,0.19305 -0.270271,0.03861 -0.540541,0.07722 -0.772201,0.07722 -1.312741,-0.07722 -2.007722,-0.810811 -2.007722,-2.277992" id="path168" style="stroke-width:0.3861" /><path class="st1" d="m 96.872587,28.030888 v -10.15444 l 1.969112,-0.15444 v 9.96139 c 0,0.34749 0.07722,0.61776 0.19305,0.7722 0.11583,0.154441 0.30888,0.231661 0.579151,0.231661 0.11583,0 0.30888,-0.03861 0.50193,-0.07722 l 0.23166,1.428571 c -0.19305,0.07722 -0.42471,0.11583 -0.69498,0.19305 -0.270271,0.03861 -0.540541,0.07722 -0.772201,0.07722 -1.312741,-0.07722 -2.007722,-0.810811 -2.007722,-2.277992" id="path170" style="stroke-width:0.3861" /><path class="st1" d="m 106.60232,24.787645 c -0.0386,-0.694981 -0.19305,-1.196911 -0.50193,-1.544402 -0.30888,-0.34749 -0.73359,-0.50193 -1.23553,-0.50193 -0.50193,0 -0.92664,0.15444 -1.23552,0.50193 -0.34749,0.347491 -0.54054,0.849421 -0.65637,1.544402 z m 1.9305,1.235521 h -5.63707 c 0.0772,1.814672 0.96525,2.702703 2.58688,2.702703 0.3861,0 0.81081,-0.03861 1.23552,-0.15444 0.42471,-0.115831 0.81081,-0.231661 1.19691,-0.386101 l 0.42471,1.351352 c -0.96525,0.46332 -2.04633,0.69498 -3.24324,0.69498 -0.92665,0 -1.69885,-0.15444 -2.31661,-0.50193 -0.61776,-0.347491 -1.08108,-0.849421 -1.42857,-1.505792 -0.30888,-0.65637 -0.46332,-1.428571 -0.46332,-2.355212 0,-0.965251 0.15444,-1.776062 0.50193,-2.471043 0.34749,-0.69498 0.81081,-1.196911 1.38996,-1.583011 0.57915,-0.347491 1.27413,-0.540541 2.08494,-0.540541 0.81082,0 1.5058,0.19305 2.04634,0.579151 0.54054,0.3861 0.96525,0.888031 1.19691,1.505791 0.27027,0.617761 0.3861,1.312742 0.3861,2.084942 v 0.579151 z" id="path172" style="stroke-width:0.3861" /><path class="st1" d="m 110.11583,23.667954 c 0,-0.463321 -0.0386,-1.196912 -0.0772,-2.162162 h 1.85328 c 0.0386,0.23166 0.0772,0.54054 0.0772,0.84942 0.0386,0.347491 0.0386,0.617761 0.0772,0.810811 0.23166,-0.3861 0.46332,-0.694981 0.65637,-0.965251 0.23166,-0.27027 0.46332,-0.46332 0.7722,-0.61776 0.30888,-0.154441 0.61776,-0.231661 1.00386,-0.231661 0.30888,0 0.57916,0.03861 0.77221,0.07722 l -0.23166,1.698842 c -0.19306,-0.07722 -0.38611,-0.07722 -0.65638,-0.07722 -0.46332,0 -0.84942,0.11583 -1.19691,0.34749 -0.34749,0.231661 -0.73359,0.617761 -1.11969,1.158302 v 5.521235 h -1.96911 v -6.409266 z" id="path174" style="stroke-width:0.3861" /><path class="st1" d="m 116.44788,33.590734 c -0.27027,-0.03861 -0.54054,-0.115831 -0.69498,-0.154441 l 0.34749,-1.428571 c 0.11583,0.03861 0.30888,0.07722 0.50193,0.11583 0.19305,0.03861 0.3861,0.03861 0.57915,0.03861 0.88803,0 1.50579,-0.57915 1.96911,-1.698842 l 0.11583,-0.30888 -3.16602,-8.687259 h 2.12355 l 1.58301,4.864865 c 0.27027,0.810811 0.42471,1.467182 0.50193,1.891892 0.15444,-0.61776 0.30888,-1.235521 0.54054,-1.853282 l 1.62162,-4.903475 h 1.96911 l -3.16602,8.725869 c -0.30888,0.810811 -0.61776,1.505792 -0.96525,2.007722 -0.34749,0.501931 -0.7722,0.888031 -1.23552,1.119691 -0.46332,0.231661 -1.04247,0.386101 -1.69884,0.386101 -0.30888,-0.03861 -0.61776,-0.03861 -0.92664,-0.11583" id="path176" style="stroke-width:0.3861" /><polygon class="st1" points="373.5,243 373.5,247.3 379.3,247.3 379.3,249.3 373.5,249.3 373.5,254.1 380,254.1 379.8,256.3 370.8,256.3 370.8,240.7 380,240.7 379.7,243 " id="polygon178" transform="matrix(0.38610039,0,0,0.38610039,-101.58301,-85.637066)" /><polygon class="st1" points="387.8,246.3 391.3,240.7 394.2,240.7 389.4,248.3 394.6,256.3 391.5,256.3 387.8,250.2 384,256.3 381,256.3 386.3,248.4 381.4,240.7 384.5,240.7 " id="polygon180" transform="matrix(0.38610039,0,0,0.38610039,-101.58301,-85.637066)" /><path class="st1" d="M 54.942085,7.7606178 C 54.555985,7.4517375 53.938224,7.2972973 53.204633,7.2972973 h -1.621621 v 6.0231657 h 1.042471 v -2.316602 c 0.30888,0.03861 0.57915,0.07722 0.7722,0.07722 0.424711,0 0.810811,-0.07722 1.119692,-0.23166 0.30888,-0.15444 0.57915,-0.386101 0.7722,-0.694981 0.19305,-0.3088802 0.270271,-0.6563705 0.270271,-1.0424709 -0.03861,-0.5791506 -0.231661,-1.042471 -0.617761,-1.3513513 z M 54.169884,10 c -0.23166,0.19305 -0.54054,0.30888 -0.965251,0.30888 -0.15444,0 -0.34749,-0.03861 -0.61776,-0.07722 V 8.1081081 h 0.57915 c 0.424711,0 0.772201,0.07722 1.003861,0.2316602 0.23166,0.1544402 0.347491,0.4247105 0.347491,0.8108109 C 54.478764,9.4980695 54.362934,9.8069498 54.169884,10 Z" id="path182" style="stroke-width:0.3861" /><polygon class="st1" points="418.7,254 418.5,256.3 409.6,256.3 409.6,240.7 412.3,240.7 412.3,254 " id="polygon184" transform="matrix(0.38610039,0,0,0.38610039,-101.58301,-85.637066)" /><path class="st1" d="m 64.362934,12.316602 c 0.308881,-0.19305 0.501931,-0.46332 0.656371,-0.81081 0.15444,-0.347491 0.23166,-0.733591 0.23166,-1.158302 0,-0.4247101 -0.07722,-0.8108105 -0.19305,-1.1583008 -0.11583,-0.3474904 -0.34749,-0.6177606 -0.617761,-0.8108108 -0.27027,-0.1930502 -0.65637,-0.3088803 -1.081081,-0.3088803 -0.42471,0 -0.7722,0.1158301 -1.081081,0.3088803 -0.30888,0.1930502 -0.50193,0.4633204 -0.65637,0.8108108 -0.154441,0.3474903 -0.231661,0.7335907 -0.231661,1.1196908 0,0.424711 0.07722,0.810811 0.193051,1.158301 0.15444,0.347491 0.34749,0.617761 0.61776,0.810811 0.27027,0.19305 0.656371,0.308881 1.042471,0.308881 0.463321,0 0.849421,-0.07722 1.119691,-0.270271 m -2.702702,0.733591 C 61.235521,12.779923 60.888031,12.432432 60.656371,11.969112 60.42471,11.505792 60.30888,10.965251 60.30888,10.3861 c 0,-0.6177602 0.11583,-1.1969108 0.386101,-1.6602313 0.23166,-0.4633204 0.61776,-0.8494208 1.081081,-1.1196911 0.46332,-0.2702703 1.003861,-0.3861004 1.660231,-0.3861004 0.617761,0 1.119692,0.1158301 1.583012,0.3861004 0.42471,0.2702703 0.772201,0.6177606 1.003861,1.042471 0.23166,0.4633205 0.34749,0.965251 0.34749,1.5830114 0,0.656371 -0.11583,1.196911 -0.3861,1.698842 -0.27027,0.50193 -0.617761,0.849421 -1.081081,1.119691 -0.463321,0.27027 -1.003861,0.3861 -1.621622,0.3861 -0.65637,0 -1.158301,-0.15444 -1.621621,-0.3861" id="path186" style="stroke-width:0.3861" /><path class="st1" d="m 69.111969,10.15444 c 0.27027,0 0.463321,-0.03861 0.656371,-0.15444 C 69.96139,9.8841699 70.11583,9.7683398 70.23166,9.5752896 70.34749,9.3822394 70.3861,9.1891892 70.3861,8.957529 70.3861,8.6486486 70.30888,8.4169884 70.11583,8.3011583 69.92278,8.1467181 69.65251,8.1081081 69.266409,8.1081081 H 68.494208 V 10.15444 Z M 67.490347,7.2972973 h 1.891892 c 0.694981,0 1.196912,0.1544402 1.544402,0.4247104 0.34749,0.2702703 0.54054,0.6563707 0.54054,1.1969112 0,0.3088803 -0.07722,0.6177606 -0.19305,0.8494209 C 71.158301,10 71.003861,10.19305 70.810811,10.34749 c -0.19305,0.154441 -0.386101,0.270271 -0.579151,0.347491 l 1.853282,2.664092 h -1.196911 l -1.583012,-2.393822 h -0.7722 v 2.393822 h -1.042472 z" id="path188" style="stroke-width:0.3861" /><polygon class="st1" points="454.6,243 454.6,247.3 460.5,247.3 460.5,249.3 454.6,249.3 454.6,254.1 461.2,254.1 461,256.3 451.9,256.3 451.9,240.7 461.1,240.7 460.8,243 " id="polygon190" transform="matrix(0.38610039,0,0,0.38610039,-101.58301,-85.637066)" /><rect x="80.308861" y="7.2972965" class="st1" width="1.0424711" height="6.0231662" id="rect192" style="stroke-width:0.3861" /><polygon class="st1" points="480.9,256.3 480.9,243 476.1,243 476.3,240.7 488.5,240.7 488.2,243 483.6,243 483.6,256.3 " id="polygon194" transform="matrix(0.38610039,0,0,0.38610039,-101.58301,-85.637066)" /><path class="st1" d="m 94.247104,12.316602 c 0.308881,-0.19305 0.501931,-0.46332 0.656371,-0.81081 0.15444,-0.347491 0.23166,-0.733591 0.23166,-1.158302 0,-0.4247101 -0.07722,-0.8108105 -0.19305,-1.1583008 -0.11583,-0.3474904 -0.34749,-0.6177606 -0.617761,-0.8108108 -0.27027,-0.1930502 -0.65637,-0.3088803 -1.081081,-0.3088803 -0.42471,0 -0.772201,0.1158301 -1.081081,0.3088803 -0.30888,0.1930502 -0.50193,0.4633204 -0.65637,0.8108108 -0.154441,0.3474903 -0.231661,0.7335907 -0.231661,1.1196908 0,0.424711 0.07722,0.810811 0.19305,1.158301 0.154441,0.347491 0.347491,0.617761 0.617761,0.810811 0.27027,0.19305 0.656371,0.308881 1.042471,0.308881 0.463321,0 0.810811,-0.07722 1.119691,-0.270271 m -2.702702,0.733591 C 91.119691,12.779923 90.772201,12.432432 90.540541,11.969112 90.30888,11.505792 90.19305,10.965251 90.19305,10.3861 c 0,-0.6177602 0.11583,-1.1969108 0.386101,-1.6602313 0.23166,-0.4633204 0.61776,-0.8494208 1.081081,-1.1196911 0.46332,-0.2702703 1.003861,-0.3861004 1.660231,-0.3861004 0.617761,0 1.119691,0.1158301 1.583012,0.3861004 0.42471,0.2702703 0.772201,0.6177606 1.003861,1.042471 0.23166,0.4633205 0.34749,0.965251 0.34749,1.5830114 0,0.656371 -0.11583,1.196911 -0.3861,1.698842 -0.27027,0.46332 -0.617761,0.849421 -1.081081,1.119691 -0.463321,0.27027 -1.003861,0.3861 -1.621622,0.3861 -0.65637,0 -1.196911,-0.15444 -1.621621,-0.3861" id="path196" style="stroke-width:0.3861" /><path class="st1" d="m 97.335907,7.2972973 h 1.196912 l 2.972971,4.6718147 c -0.0386,-0.42471 -0.0386,-0.849421 -0.0386,-1.235521 V 7.2972973 h 0.96525 v 6.0231657 h -1.1583 L 98.262548,8.5714286 c 0.03861,0.5405405 0.03861,1.003861 0.03861,1.4285714 v 3.320463 h -0.965251 z" id="path198" style="stroke-width:0.3861" /><path class="st2" d="M 26.949807,7.2586873 H 15.830116 c -5.250965,0 -7.1428573,1.9305019 -7.1428573,7.1428567 v 11.119692 c 0,5.250965 1.9305023,7.142857 7.1428573,7.142857 h 11.119691 c 5.250965,0 7.142857,-1.930502 7.142857,-7.142857 V 14.401544 c 0,-5.2123548 -1.891892,-7.1428567 -7.142857,-7.1428567" id="path200" style="stroke-width:0.3861" /><path class="st1" d="m 19.76834,22.007722 h 1.003861 L 20.27027,20.810811 Z m -0.23166,0.579151 -0.308881,0.69498 h -0.69498 L 20,19.96139 h 0.579151 l 1.467181,3.320463 h -0.694981 l -0.30888,-0.69498 z m 11.081081,0.69498 h 0.65637 V 19.96139 h -0.65637 z m -2.664093,-1.428571 h 1.235521 v -0.617761 h -1.235521 v -0.69498 H 29.72973 V 19.92278 h -2.432433 v 3.320463 h 2.509653 v -0.61776 H 27.953668 Z M 25.328185,22.277992 24.555985,20 H 24.015444 L 23.243243,22.277992 22.509653,20 h -0.733591 l 1.158301,3.320463 h 0.54054 l 0.772201,-2.200772 0.772201,2.200772 h 0.579151 L 26.756757,20 h -0.694981 z m -7.799227,-0.3861 c 0,0.54054 -0.270271,0.810811 -0.772201,0.810811 -0.501931,0 -0.772201,-0.308881 -0.772201,-0.849421 V 19.96139 h -0.656371 v 1.891892 c 0,0.926641 0.501931,1.467181 1.428572,1.467181 0.926641,0 1.428571,-0.54054 1.428571,-1.505791 V 19.92278 h -0.65637 z M 13.706564,19.96139 h 0.65637 v 3.320463 h -0.65637 v -1.351351 h -1.505792 v 1.351351 h -0.65637 V 19.96139 h 0.65637 v 1.351351 h 1.505792 z" id="path202" style="stroke-width:0.3861" /><path class="st1" d="m 21.389961,15.752896 c -2.316602,0 -4.247104,-1.891892 -4.247104,-4.247104 h 0.579151 c 0,2.007722 1.621621,3.629343 3.629343,3.629343 2.007722,0 3.629344,-1.621621 3.629344,-3.629343 h 0.579151 c 0.07722,2.355212 -1.814672,4.247104 -4.169885,4.247104" id="path204" style="stroke-width:0.3861" /></svg>