<svg width="120" height="120" xmlns="http://www.w3.org/2000/svg">
<style>
    @keyframes zeroBounce {
      0% {
        opacity: 0;
        transform: translate(67px, -50px);
      }

      3% {
        opacity: 0%;
      }

      10% {
        opacity: 1;
        transform: translate(67px, 27px);
      }

      11% {
        opacity: 1;
        transform: translate(67px, 23px);
      }

      12% {
        opacity: 1;
        transform: translate(67px, 25px);
      }

      88% {
        opacity: 1;
        transform: translate(67px, 25px);
      }

      90% {
        opacity: 1;
        transform: translate(67px, 23px);
      }

      97% {
        opacity: 0;
      }

      100% {
        transform: translate(67px, 100px);
      }
    }

    .zero {
      animation-name: zeroBounce;
      animation-duration: 4000ms;
      transform-origin: 50% 50%;
      transform: translate(67px, -50px);
      opacity: 0;
      animation-iteration-count: infinite;
      animation-timing-function: ease-in-out;
    }
  </style>

  <g fill="none" fill-rule="evenodd">
    <path fill="#ECF5FA" d="M0 0h120v120H0z"/>
    <path fill-opacity=".05" fill="#0B79BF" d="M0 60h120v60H0z"/>
    <g transform="translate(24.444 30)">
      <ellipse fill="#0B79BF" opacity=".1" cx="35.556" cy="62.222" rx="35.556" ry="4.444"/>
      <g fill-rule="nonzero">
        <g transform="translate(14.444 54.444)" fill="#4D4D4F">
          <circle cx="3.889" cy="3.889" r="3.889"/>
          <circle cx="38.333" cy="3.889" r="3.889"/>
        </g>
        <g fill="#DBDBDD">
          <path d="M18.333 60c-.807 0-1.503-.638-1.661-1.525l-1.116-6.253h5.555l-1.116 6.253c-.159.887-.854 1.525-1.662 1.525zM52.778 60c-.808 0-1.503-.638-1.662-1.525L50 52.222h5.556l-1.117 6.253c-.159.887-.854 1.525-1.661 1.525z"/>
        </g>
        <g>
          <path d="M1.645.012L1.76.03l4.123.82A3.619 3.619 0 0 1 8.587 3.18l.054.164 5.842 19.181h4.277L15.966 9.638A1.462 1.462 0 0 1 17.092 7.9a1.47 1.47 0 0 1 1.72 1.01l.029.11 2.927 13.504h4.282l-1.562-12.239a1.471 1.471 0 1 1 2.898-.48l.019.112 1.61 12.607h3.792l-.47-11.294a1.465 1.465 0 0 1 1.41-1.522 1.49 1.49 0 0 1 1.518 1.289l.01.113.474 11.414h3.593V12.011c0-.809.657-1.463 1.47-1.463.774 0 1.407.594 1.465 1.348l.005.115v10.513H46.1v-9.619c0-.808.658-1.463 1.47-1.463.774 0 1.408.594 1.466 1.349l.005.114v9.619h3.774v-8.86c0-.808.657-1.462 1.47-1.462.774 0 1.407.593 1.466 1.348l.004.114v8.86h3.527v-8.19c0-.808.658-1.462 1.47-1.462.774 0 1.407.593 1.466 1.348l.004.115V32.72c0 1.821-1.385 3.362-3.185 3.58l-.17.017-40.316 3.01L13.1 49.401a.645.645 0 0 0 .015.674c.1.169.257.296.485.325l.103.007h44.893c.813 0 1.47.654 1.47 1.463 0 .77-.596 1.4-1.355 1.458l-.115.004H13.702a3.605 3.605 0 0 1-3.113-1.758 3.564 3.564 0 0 1-.17-3.38l.092-.18 5.543-10.245L5.828 4.192a.685.685 0 0 0-.433-.448l-.091-.025-4.122-.82A1.463 1.463 0 0 1 1.645.012zm17.749 25.437h-4.02l3.33 10.933 3.01-.225-2.32-10.708zm7.03 0h-4.022l2.273 10.487 3.058-.228-1.31-10.259zm6.505 0h-3.541l1.281 10.04 2.67-.199-.41-9.84zm6.413 0h-3.47l.4 9.622 3.07-.23V25.45zm6.758 0h-3.818v9.174l3.818-.285v-8.889zm6.715 0H49.04v8.67l3.774-.282v-8.388zm6.467 0h-3.527v8.168l2.892-.215a.688.688 0 0 0 .635-.68v-7.273z" fill="#B8B8BA"/>
          <path d="M1.645.012L1.76.03l4.123.82A3.619 3.619 0 0 1 8.587 3.18l.054.164-2.813.849a.685.685 0 0 0-.433-.448l-.091-.025-4.122-.82A1.463 1.463 0 0 1 1.645.012z" fill="#FFBD0A"/><path d="M61.725 12.786L9.651 6.646l.887 2.911 50.84 5.967c.05.007.111.01.175.01.722 0 1.334-.519 1.421-1.213.096-.754-.462-1.443-1.249-1.535z" fill="#DBDBDD"/>
        </g>
      </g>
    </g>
    <g transform="translate(67 25)" class="zero">
      <circle fill="#FFF" cx="14.444" cy="14.444" r="14.444"/>
      <circle fill="#0B79BF" cx="14.444" cy="14.444" r="11.111"/>
      <path d="M14.429 8.893c.55 0 1.065.094 1.548.28.482.187.907.498 1.275.934.368.435.659 1.013.871 1.734.213.72.32 1.61.32 2.668 0 1.089-.107 1.999-.32 2.73-.212.731-.503 1.314-.87 1.75a3.153 3.153 0 0 1-1.276.933 4.25 4.25 0 0 1-1.548.28c-.54 0-1.05-.093-1.532-.28a3.096 3.096 0 0 1-1.268-.933c-.363-.436-.65-1.019-.863-1.75-.213-.731-.32-1.641-.32-2.73 0-1.058.107-1.947.32-2.668.212-.72.5-1.299.863-1.734a3.096 3.096 0 0 1 1.268-.934c.482-.186.993-.28 1.532-.28zm0 1.82c-.3 0-.552.068-.755.203a1.623 1.623 0 0 0-.497.528c-.13.218-.231.465-.304.74a5.734 5.734 0 0 0-.155.832c-.031.28-.05.552-.055.816l-.005.368-.001.503c.003.27.013.581.03.934.02.44.085.866.194 1.275.109.41.283.76.521 1.05.239.29.581.436 1.027.436.456 0 .806-.145 1.05-.436.244-.29.42-.64.529-1.05a6.06 6.06 0 0 0 .194-1.275c.013-.265.021-.506.026-.724l.005-.404-.007-.677a7.497 7.497 0 0 0-.218-1.649 2.545 2.545 0 0 0-.304-.739 1.669 1.669 0 0 0-.513-.528c-.207-.135-.461-.203-.762-.203z" fill="#FFF" fill-rule="nonzero"/>
    </g>
  </g>
</svg>