<svg xmlns="http://www.w3.org/2000/svg" width="74" height="50" viewBox="0 0 74 50"><g fill="none" fill-rule="evenodd" transform="matrix(-1 0 0 1 74 0)"><ellipse cx="44" cy="48.026" fill="#000" opacity=".1" rx="44" ry="1.974"/><g transform="translate(3.52 8.772)"><path fill="#FFF" d="M1.357 15.467L13.92.704A2 2 0 0 1 15.444 0H28.16v32.456H2.88a2 2 0 0 1-2-2V16.764a2 2 0 0 1 .477-1.297z"/><path fill="#93D5FF" d="M5.793 13.104L15.1 2.108a1 1 0 0 1 .764-.354h6.456a1 1 0 0 1 1 1V13.75a1 1 0 0 1-1 1H6.557a1 1 0 0 1-.764-1.646z"/><rect width="4.84" height="1.316" x="18.48" y="17.105" fill="#ADADAD" opacity=".4" rx=".658"/><path fill="#FFF" d="M5.796 13.106l2.921-3.473H23.32v4.117a1 1 0 0 1-1 1H6.561a1 1 0 0 1-.765-1.644z" opacity=".4"/><path fill="#93D5FF" d="M.88 22.368a.879.879 0 0 1-.88-.877V18.86c0-.485.394-.878.88-.878"/><rect width="2.2" height="1" x="5.28" y="17.105" fill="#F5A623" rx=".5"/><path fill="#ADADAD" d="M.88 27.632h27.28v1H.88z" opacity=".4"/><path fill="#000" d="M25.96 0h2.2v32.456h-2.2z" opacity=".07"/></g><path fill="#FFF" d="M34.68 0h46.36a3 3 0 0 1 3 3v35.228a3 3 0 0 1-3 3H31.68V3a3 3 0 0 1 3-3z"/><path fill="#ADADAD" d="M31.68 36.404h52.36v1H31.68z" opacity=".4"/><g transform="translate(11 34.21)"><ellipse cx="7.04" cy="7.018" stroke="#35353D" stroke-width="6" rx="4.04" ry="4.018"/><ellipse cx="7.04" cy="7.018" fill="#9CA0AD" rx="4.4" ry="4.386"/><ellipse cx="7.04" cy="7.018" fill="#F4F4F4" opacity=".6" rx="3.08" ry="3.07"/></g></g></svg>
