<svg xmlns="http://www.w3.org/2000/svg" width="70" height="45" viewBox="0 0 70 45"><g fill="none" fill-rule="evenodd"><path fill="#C8A281" d="M24 2h44v38H24z"/><path fill="#000" d="M24 2h44v10H24z" opacity=".2"/><path fill="#C8A281" d="M22 0h48v8H22z"/><path fill="#FFF" d="M41 0h10v22H41z" opacity=".2"/><path d="M30.223 44.98c-2.253.165-4.463-.711-6.054-2.4L13.267 31.075H-22V15l37.085.066c4.116.012 8.061 1.735 10.978 4.793l9.362 9.832c.626.663.958 1.572.914 2.506a3.388 3.388 0 0 1-1.141 2.4c-1.306 1.07-3.168.933-4.318-.32l-4.502-4.712a1.012 1.012 0 0 0-.816-.32 1.03 1.03 0 0 0-.762.446 1.175 1.175 0 0 0 .145 1.45l5.17 5.444a3.604 3.604 0 0 0 2.835 1.136h11.698c1.8-.12 3.352 1.74 3.352 3.61 0 1.87-1.255 3.53-3.055 3.65H30.223z" fill="#FFE6D2" fill-rule="nonzero"/></g></svg>
