<?xml version="1.0" encoding="UTF-8"?>
<svg width="120px" height="120px" viewBox="0 0 120 120" version="1.1" xmlns="http://www.w3.org/2000/svg" xmlns:xlink="http://www.w3.org/1999/xlink">
   <style>
    @keyframes zeroBounce {
      0% {
        opacity: 0;
        transform: translate(73px, -73px);
      }

      3% {
        opacity: 0%;
      }

     10% {
        opacity: 1;
        transform: translate(73px, 73px);
      }

      11% {
        opacity: 1;
        transform: translate(73px, 70px);
      }

      12% {
        opacity: 1;
        transform: translate(73px, 73px);
      }

      88% {
        opacity: 1;
        transform: translate(73px, 73px);
      }

      90% {
        opacity: 1;
        transform: translate(73px, 73px);
      }

      97% {
        opacity: 0;
      }

      100% {
        transform: translate(73px, 173px);
      }
    }

    #Circle {
      animation-name: zeroBounce;
      animation-duration: 4000ms;
      transform-origin: 50%  50%;
      transform: translate(73px, 73px);
      opacity: 0;
      animation-iteration-count: infinite;
      animation-timing-function: ease-in-out;
    }
  </style>
    <defs>
        <circle id="path-1" cx="13.5" cy="13.5" r="13.5"></circle>
        <filter x="-1.9%" y="-1.9%" width="107.4%" height="107.4%" filterUnits="objectBoundingBox" id="filter-2">
            <feOffset dx="1" dy="1" in="SourceAlpha" result="shadowOffsetOuter1"></feOffset>
            <feColorMatrix values="0 0 0 0 0   0 0 0 0 0   0 0 0 0 0  0 0 0 0.1 0" type="matrix" in="shadowOffsetOuter1"></feColorMatrix>
        </filter>
        <path d="M13.4801053,20.8638947 C14.1830526,20.8638947 14.8428947,20.7445263 15.4596316,20.5057895 C16.0763684,20.2670526 16.6201579,19.8691579 17.091,19.3121053 C17.5618421,18.7550526 17.9332105,18.009 18.2051053,17.0739474 C18.477,16.1388947 18.6129474,14.9750526 18.6129474,13.5824211 C18.6129474,12.2295789 18.477,11.0922632 18.2051053,10.1704737 C17.9332105,9.24868421 17.5618421,8.50926316 17.091,7.95221053 C16.6201579,7.39515789 16.0763684,6.99726316 15.4596316,6.75852632 C14.8428947,6.51978947 14.1830526,6.40042105 13.4801053,6.40042105 C12.7904211,6.40042105 12.1372105,6.51978947 11.5204737,6.75852632 C10.9037368,6.99726316 10.3632632,7.39515789 9.89905263,7.95221053 C9.43484211,8.50926316 9.06678947,9.24868421 8.79489474,10.1704737 C8.523,11.0922632 8.38705263,12.2295789 8.38705263,13.5824211 C8.38705263,14.9750526 8.523,16.1388947 8.79489474,17.0739474 C9.06678947,18.009 9.43484211,18.7550526 9.89905263,19.3121053 C10.3632632,19.8691579 10.9037368,20.2670526 11.5204737,20.5057895 C12.1372105,20.7445263 12.7904211,20.8638947 13.4801053,20.8638947 Z M13.4801053,18.5561053 C12.9097895,18.5561053 12.4721053,18.3704211 12.1670526,17.9990526 C11.862,17.6276842 11.6398421,17.1800526 11.5005789,16.6561579 C11.3613158,16.1322632 11.2784211,15.5884737 11.2518947,15.0247895 C11.2253684,14.4611053 11.2121053,13.9803158 11.2121053,13.5824211 C11.2121053,13.3436842 11.2154211,13.0552105 11.2220526,12.717 C11.2286842,12.3787895 11.2518947,12.0306316 11.2916842,11.6725263 C11.3314737,11.3144211 11.3977895,10.9596316 11.4906316,10.6081579 C11.5834737,10.2566842 11.7127895,9.94168421 11.8785789,9.66315789 C12.0443684,9.38463158 12.2565789,9.15915789 12.5152105,8.98673684 C12.7738421,8.81431579 13.0954737,8.72810526 13.4801053,8.72810526 C13.8647368,8.72810526 14.1896842,8.81431579 14.4549474,8.98673684 C14.7202105,9.15915789 14.9390526,9.38463158 15.1114737,9.66315789 C15.2838947,9.94168421 15.4132105,10.2566842 15.4994211,10.6081579 C15.5856316,10.9596316 15.6519474,11.3144211 15.6983684,11.6725263 C15.7447895,12.0306316 15.7713158,12.3787895 15.7779474,12.717 C15.7845789,13.0552105 15.7878947,13.3436842 15.7878947,13.5824211 C15.7878947,13.9803158 15.7746316,14.4611053 15.7481053,15.0247895 C15.7215789,15.5884737 15.6386842,16.1322632 15.4994211,16.6561579 C15.3601579,17.1800526 15.1346842,17.6276842 14.823,17.9990526 C14.5113158,18.3704211 14.0636842,18.5561053 13.4801053,18.5561053 Z" id="path-3"></path>
        <filter x="-2.4%" y="-1.7%" width="109.8%" height="106.9%" filterUnits="objectBoundingBox" id="filter-4">
            <feOffset dx="0.5" dy="0.5" in="SourceAlpha" result="shadowOffsetOuter1"></feOffset>
            <feColorMatrix values="0 0 0 0 0   0 0 0 0 0   0 0 0 0 0  0 0 0 0.2 0" type="matrix" in="shadowOffsetOuter1"></feColorMatrix>
        </filter>
    </defs>
    <g id="Wishlist_Desktop" stroke="none" stroke-width="1" fill="none" fill-rule="evenodd">
        <g id="UU-123_1.13.2_Wishlist_Shared-List_Empty" transform="translate(-824.000000, -224.000000)">
            <g id="Heading" transform="translate(120.000000, 152.000000)">
                <g id="Illustration-/-Shopping-Cart-Copy" transform="translate(704.000000, 72.000000)">
                    <rect id="Background-1" fill="#ECF5FA" x="0" y="0" width="120" height="120"></rect>
                    <rect id="Background-2" fill-opacity="0.05" fill="#0B79BF" x="0" y="60" width="120" height="60"></rect>
                    <g id="heart-(1)" transform="translate(19.000000, 27.000000)" fill-rule="nonzero">
                        <path d="M83,23.8192848 C83,49.2091973 53.1717867,65.9612096 44.0938013,70.4110146 C42.5376117,71.1963285 40.4625707,71.1963285 38.9063811,70.4110146 C29.8282133,65.9612096 0,49.7326171 0,23.8192848 C0,10.7317636 9.59683682,0 21.2687147,0 C30.6062169,0 38.3875296,6.54385259 41.2405743,15.7049886 C44.0936189,6.54366855 52.1342661,0 61.2124339,0 C73.4031632,0 83,10.7317636 83,23.8192848 Z" id="Path" fill="#E24C4B"></path>
                        <path d="M83,23.8192848 C83,49.2091973 53.4256499,65.9612096 44.4249258,70.4110146 C42.8819807,71.1963285 40.8246,71.1963285 39.0243467,70.4110146 C34.9095853,68.578677 27.194679,64.129056 19.4795918,57.8469133 L19.7367192,57.8469133 C44.1676176,57.8469133 63.7123725,37.6921198 63.7123725,13.0875211 C63.7123725,8.6377161 62.9408095,4.18791106 61.6549918,0 C73.7419677,0.261709933 83,10.7317636 83,23.8192848 Z" id="Path" fill="#D1403F"></path>
                        <g id="Group" opacity="0.2" transform="translate(11.010204, 8.554217)" fill="#FFFFFF">
                            <path d="M8.87988403,11.5493333 C4.79855582,12.6307764 0.972445138,11.0087068 0.207151261,8.03469076 C-0.30292509,4.79036145 2.24781537,1.54603213 6.32914358,0.464589023 C10.4104718,-0.616854083 14.2365825,1.00521553 15.0018764,3.97923159 C15.7669909,7.22356091 12.9612122,10.4678902 8.87988403,11.5493333 Z" id="Path"></path>
                        </g>
                    </g>
                    <g id="Circle" transform="translate(73.000000, 73.000000)" fill-rule="nonzero">
                        <g id="Oval">
                            <use fill="black" fill-opacity="1" filter="url(#filter-2)" xlink:href="#path-1"></use>
                            <use fill="#FFFFFF" xlink:href="#path-1"></use>
                        </g>
                        <g id="0">
                            <use fill="black" fill-opacity="1" filter="url(#filter-4)" xlink:href="#path-3"></use>
                            <use fill="#0B79BF" xlink:href="#path-3"></use>
                        </g>
                    </g>
                </g>
            </g>
        </g>
    </g>
</svg>